<svg xmlns="http://www.w3.org/2000/svg" xmlns:xlink="http://www.w3.org/1999/xlink" viewBox="0 0 92 92"><defs><style>.cls-1{fill:url(#linear-gradient);}</style><linearGradient id="linear-gradient" y1="46" x2="92" y2="46" gradientUnits="userSpaceOnUse"><stop offset="0" stop-color="#0c98f2"/><stop offset="0.99" stop-color="#005b97"/></linearGradient></defs><title>Ikon Dana Cair</title><g id="Layer_2" data-name="Layer 2"><g id="Layer_1-2" data-name="Layer 1"><path class="cls-1" d="M91.47.53A1.8,1.8,0,0,0,90.2,0H46a1.8,1.8,0,0,0-1.8,1.8V6.94l-17,4.56a1.8,1.8,0,0,0-1.27,2.2l8.83,32.94-7.64,7.64a5.39,5.39,0,0,0-4.45-2.35H5.39A5.4,5.4,0,0,0,0,57.32V86.61A5.4,5.4,0,0,0,5.39,92H22.64a5.4,5.4,0,0,0,5.23-4.09L30,89.77A9.05,9.05,0,0,0,36,92H90.2A1.8,1.8,0,0,0,92,90.2V1.8A1.8,1.8,0,0,0,91.47.53Zm-67,86.08a1.8,1.8,0,0,1-1.8,1.8H5.39a1.8,1.8,0,0,1-1.8-1.8V57.32a1.8,1.8,0,0,1,1.8-1.8h6.83v20.7a1.8,1.8,0,0,0,3.59,0V55.52h6.83a1.8,1.8,0,0,1,1.8,1.8V86.61Zm5.4-72.1L44.2,10.66v6.66l-1.2.32a1.8,1.8,0,0,0-1.27,2.2,4.84,4.84,0,0,1-3.42,5.93A1.8,1.8,0,0,0,37,28L44,53.9H40.43l-1.86-7.27a1.79,1.79,0,0,0-.3-.63Zm14.37,11V40.72L40.92,28.58A8.42,8.42,0,0,0,44.2,25.56ZM70,88.41H36a5.46,5.46,0,0,1-3.59-1.34L28,83.28V58.42l7.84-7.84,1.42,5.57A1.8,1.8,0,0,0,39,57.5H74.37a2.52,2.52,0,1,1,0,5H56.26a1.8,1.8,0,1,0,0,3.59H80a2.52,2.52,0,0,1,0,5H56.26a1.8,1.8,0,0,0,0,3.59H76.14a2.52,2.52,0,1,1,0,5H56.26a1.8,1.8,0,1,0,0,3.59H70a2.52,2.52,0,1,1,0,5Zm18.39,0H75.58a6.09,6.09,0,0,0,0-5h.56a6.11,6.11,0,0,0,5.46-8.84A6.1,6.1,0,0,0,84.89,65V42.23a1.8,1.8,0,0,0-3.59,0V62.67A6.11,6.11,0,0,0,80,62.53h-.06a6.11,6.11,0,0,0-5.57-8.62H71.48a8.6,8.6,0,1,0-6.76,0H54.9V19.74a8.46,8.46,0,0,0,6.44-6.44H74.86a8.46,8.46,0,0,0,6.44,6.44v5.59a1.8,1.8,0,0,0,3.59,0V18.14a1.8,1.8,0,0,0-1.8-1.8,4.84,4.84,0,0,1-4.84-4.84,1.8,1.8,0,0,0-1.8-1.8H59.74a1.8,1.8,0,0,0-1.8,1.8,4.84,4.84,0,0,1-4.84,4.84,1.8,1.8,0,0,0-1.8,1.8V53.91H47.8V3.6H88.4ZM68.1,51a5,5,0,1,1,5-5A5,5,0,0,1,68.1,51Z"/></g></g></svg>