<svg xmlns="http://www.w3.org/2000/svg" xmlns:xlink="http://www.w3.org/1999/xlink" viewBox="0 0 74 74"><defs><style>.cls-1{fill:url(#linear-gradient);}.cls-2{fill:url(#linear-gradient-2);}.cls-3{fill:url(#linear-gradient-3);}.cls-4{fill:url(#linear-gradient-4);}.cls-5{fill:url(#linear-gradient-5);}.cls-6{fill:url(#linear-gradient-6);}</style><linearGradient id="linear-gradient" x1="4.77" y1="25.06" x2="40.58" y2="25.06" gradientUnits="userSpaceOnUse"><stop offset="0" stop-color="#0c98f2"/><stop offset="0.99" stop-color="#005b97"/></linearGradient><linearGradient id="linear-gradient-2" x1="23.87" y1="60.87" x2="40.58" y2="60.87" xlink:href="#linear-gradient"/><linearGradient id="linear-gradient-3" x1="4.77" y1="60.87" x2="21.48" y2="60.87" xlink:href="#linear-gradient"/><linearGradient id="linear-gradient-4" x1="23.87" y1="41.77" x2="40.58" y2="41.77" xlink:href="#linear-gradient"/><linearGradient id="linear-gradient-5" x1="4.77" y1="41.77" x2="21.48" y2="41.77" xlink:href="#linear-gradient"/><linearGradient id="linear-gradient-6" x1="0" y1="37" x2="74" y2="37" xlink:href="#linear-gradient"/></defs><title>Ikon Simulasi</title><g id="Layer_2" data-name="Layer 2"><g id="Layer_1-2" data-name="Layer 1"><path class="cls-1" d="M6,31H39.39a1.19,1.19,0,0,0,1.19-1.19V20.29a1.19,1.19,0,0,0-1.19-1.19H6a1.19,1.19,0,0,0-1.19,1.19v9.55A1.19,1.19,0,0,0,6,31Zm1.19-9.55h31v7.16h-31Z"/><path class="cls-2" d="M39.39,52.52H25.06a1.19,1.19,0,0,0-1.19,1.19V68a1.19,1.19,0,0,0,1.19,1.19H39.39A1.19,1.19,0,0,0,40.58,68V53.71A1.19,1.19,0,0,0,39.39,52.52ZM38.19,66.84H26.26V54.9H38.19Z"/><path class="cls-3" d="M6,69.23H20.29A1.19,1.19,0,0,0,21.48,68V53.71a1.19,1.19,0,0,0-1.19-1.19H6a1.19,1.19,0,0,0-1.19,1.19V68A1.19,1.19,0,0,0,6,69.23ZM7.16,54.9H19.1V66.84H7.16Z"/><path class="cls-4" d="M39.39,33.42H25.06a1.19,1.19,0,0,0-1.19,1.19V48.94a1.19,1.19,0,0,0,1.19,1.19H39.39a1.19,1.19,0,0,0,1.19-1.19V34.61A1.19,1.19,0,0,0,39.39,33.42ZM38.19,47.74H26.26V35.81H38.19Z"/><path class="cls-5" d="M6,50.13H20.29a1.19,1.19,0,0,0,1.19-1.19V34.61a1.19,1.19,0,0,0-1.19-1.19H6a1.19,1.19,0,0,0-1.19,1.19V48.94A1.19,1.19,0,0,0,6,50.13ZM7.16,35.81H19.1V47.74H7.16Z"/><path class="cls-6" d="M72.81,0H27.45a1.19,1.19,0,0,0-1.19,1.19V4.77H22.68A1.19,1.19,0,0,0,21.48,6v8.35H1.19A1.19,1.19,0,0,0,0,15.52V72.81A1.19,1.19,0,0,0,1.19,74H68a1.19,1.19,0,0,0,1.19-1.19V69.23h3.58A1.19,1.19,0,0,0,74,68V1.19A1.19,1.19,0,0,0,72.81,0ZM43,71.61H2.39V16.71H43ZM28.65,14.32V11.94H62.06v4.77H45.35V15.52a1.19,1.19,0,0,0-1.19-1.19ZM66.84,71.61H45.35V69.23h7.16V66.84H45.35V64.45h7.16V62.06H45.35V57.29h7.16V54.9H45.35V52.52h7.16V50.13H45.35V45.35h7.16V43H45.35V40.58h7.16V38.19H45.35V33.42h7.16V31H45.35V28.65h7.16V26.26H45.35V19.1h17.9a1.19,1.19,0,0,0,1.19-1.19V10.74a1.19,1.19,0,0,0-1.19-1.19H27.45a1.19,1.19,0,0,0-1.19,1.19v3.58H23.87V7.16h43Zm4.77-4.77H69.23V6A1.19,1.19,0,0,0,68,4.77H28.65V2.39h43Z"/></g></g></svg>