<?xml version="1.0" encoding="utf-8"?>
<!-- Generator: Adobe Illustrator 24.3.0, SVG Export Plug-In . SVG Version: 6.00 Build 0)  -->
<svg version="1.1" id="Layer_1" xmlns:svgjs="http://svgjs.com/svgjs"
	 xmlns="http://www.w3.org/2000/svg" xmlns:xlink="http://www.w3.org/1999/xlink" x="0px" y="0px" viewBox="0 0 512 512"
	 style="enable-background:new 0 0 512 512;" xml:space="preserve">
<style type="text/css">
	.st0{fill:#2B9CFF;}
</style>
<g>
	<g>
		<g>
			<path class="st0" d="M206.9,0c-28.2,0-51.2,23-51.2,51.2s23,51.2,51.2,51.2c28.2,0,51.2-23,51.2-51.2S235.2,0,206.9,0z
				 M206.9,87.5c-20,0-36.2-16.3-36.2-36.2S187,15,206.9,15c20,0,36.2,16.3,36.2,36.2C243.2,71.2,226.9,87.5,206.9,87.5z"/>
		</g>
	</g>
	<g>
		<g>
			<path class="st0" d="M399,312.3c-3-2.9-7.7-2.9-10.6,0.1l-63,64.2l-22.2-23.3c-2.9-3-7.6-3.1-10.6-0.2c-3,2.9-3.1,7.6-0.2,10.6
				l27.6,28.9c2.9,3.1,7.8,3.1,10.8,0.1l68.4-69.7C402,319.9,402,315.2,399,312.3z"/>
		</g>
	</g>
	<g>
		<g>
			<path class="st0" d="M440.4,362.4c-4.1-0.8-8,1.8-8.8,5.9c-8.6,43.3-39.1,80.2-79.7,96.5c-3.8,1.5-5.7,5.9-4.2,9.8
				s5.9,5.7,9.8,4.2c46.7-18.7,79.4-60.2,88.8-107.5C447.1,367.1,444.4,363.2,440.4,362.4z"/>
		</g>
	</g>
	<g>
		<g>
			<path class="st0" d="M427.5,246.8c-20.1,11.3-39,11.7-56.3,1.1c-13.7-8.4-21.4-20.7-21.7-21.2c-2.5-4.1-6.8-6.7-11.6-6.9
				c-14-39.1-37.2-66.2-54.8-82.4c-11.2-10.3-25.7-16-40.9-16c-7.3,0-63.4,0-70.5,0c-16.2,0-31.6,6.1-43.4,17.1
				c-24.3,22.8-65.1,72.5-65.4,149.8c-0.1,16.2,12.8,29.8,28.7,30.2c16.6,0.5,30.3-12.8,30.3-29.5c0-29,8.1-56.3,23.7-80.1v277
				c0,14.3,11.7,26,26,26h16.7c7.2,0,13.8-3,18.5-7.8c4.7,4.8,11.3,7.8,18.5,7.8h16.7c14.3,0,26-11.7,26-26v-39.5
				c13.9,13.9,30.4,24.9,48.6,32.2c3.8,1.5,8.2-0.3,9.8-4.2c1.5-3.8-0.3-8.2-4.2-9.8c-48.3-19.3-82.3-67.3-82.3-122.7v-81.8
				c30.4,16.8,59.8,12.7,83.8-9.7c5.5-5.1,10-10.4,13-15.2c0-0.1,0.1-0.2,0.1-0.2c2.2,3.3,11.2,16.3,26.3,25.5
				c15.2,9.3,39.7,16.7,70.7-0.4v74.5c0,4.1,3.4,7.5,7.5,7.5s7.5-3.4,7.5-7.5v-75.3C449.1,248.3,437.2,241.3,427.5,246.8z
				 M220.1,136.4l-9,10.7c-2.2,2.6-6.2,2.6-8.4,0l-9-10.7H220.1z M268.2,254.9v-44c8.6,13.6,14.8,28.2,18.5,43.7
				C280.7,256,274.6,256,268.2,254.9z M300.8,249.1c-6-24.1-17.6-46.1-34.4-65.7c-4.5-5.3-13.2-2-13.2,4.9v61.7
				c-3.2-1.5-7.3-3.7-7.4-3.8c-9.5-4.5-20.6,2.5-20.6,13.1v0.3V342c0,31.4,9.7,61.4,28,86.8V486h0c0,6.1-4.9,11-11,11h-16.7
				c-6.1,0-11-4.9-11-11V331.8c0-4.1-3.4-7.5-7.5-7.5s-7.5,3.4-7.5,7.5V486c0,6.1-4.9,11-11,11h-16.7c-6.1,0-11-4.9-11-11V186.9
				c0-6.9-8.6-10.1-13.1-5c-26.6,30.1-40.6,67.2-40.6,107.2c0,8.1-6.6,14.7-14.9,14.5c-7.8-0.2-14.1-7-14.1-15.1
				c0.2-71.7,38.1-117.8,60.6-138.9c9-8.4,20.8-13.1,33.2-13.1h2.5l17.1,20.3c8.2,9.7,23.2,9.7,31.4,0l17.1-20.3h2.5
				c11.4,0,22.3,4.3,30.7,12c16.6,15.3,38.8,41.2,51.6,78.6C318.8,235.7,310.1,243.9,300.8,249.1z"/>
		</g>
	</g>
</g>
</svg>
