<svg xmlns="http://www.w3.org/2000/svg" xmlns:xlink="http://www.w3.org/1999/xlink" viewBox="0 0 90 56.25"><defs><style>.cls-1{fill:url(#linear-gradient);}.cls-2{fill:url(#linear-gradient-2);}.cls-3{fill:url(#linear-gradient-3);}.cls-4{fill:url(#linear-gradient-4);}.cls-5{fill:url(#linear-gradient-5);}.cls-6{fill:url(#linear-gradient-6);}.cls-7{fill:url(#linear-gradient-7);}.cls-8{fill:url(#linear-gradient-8);}</style><linearGradient id="linear-gradient" x1="13.12" y1="30.12" x2="71.71" y2="30.12" gradientUnits="userSpaceOnUse"><stop offset="0" stop-color="#0c98f2"/><stop offset="0.99" stop-color="#005b97"/></linearGradient><linearGradient id="linear-gradient-2" x1="18.75" y1="9.37" x2="39.38" y2="9.37" xlink:href="#linear-gradient"/><linearGradient id="linear-gradient-3" x1="67.64" y1="37.46" x2="76.88" y2="37.46" xlink:href="#linear-gradient"/><linearGradient id="linear-gradient-4" x1="50.63" y1="39.37" x2="65.63" y2="39.37" xlink:href="#linear-gradient"/><linearGradient id="linear-gradient-5" x1="45" y1="44.06" x2="58.13" y2="44.06" xlink:href="#linear-gradient"/><linearGradient id="linear-gradient-6" x1="37.5" y1="47.81" x2="50.63" y2="47.81" xlink:href="#linear-gradient"/><linearGradient id="linear-gradient-7" x1="0" y1="18.75" x2="22.5" y2="18.75" xlink:href="#linear-gradient"/><linearGradient id="linear-gradient-8" x1="63.82" y1="22.5" x2="90" y2="22.5" xlink:href="#linear-gradient"/></defs><title>Ikon Persetujuan</title><g id="Layer_2" data-name="Layer 2"><g id="Layer_1-2" data-name="Layer 1"><path class="cls-1" d="M71.06,38.57C69.3,34.89,63,29.77,56.87,24.84c-3.41-2.75-6.62-5.36-8.67-7.41a1.87,1.87,0,0,0-2-.44c-1.26.46-2,.81-2.66,1.08a6.2,6.2,0,0,1-2.52.69,1.87,1.87,0,0,0-1.37.82c-2.65,4-5.4,3.63-7.23,3-.59-.19-.69-.45-.75-.69-.39-1.65,1.58-5.48,4.14-8C42,7.77,45.09,6.25,51.73,9.21c7.53,3.37,15.08,6,15.15,6a1.88,1.88,0,1,0,1.23-3.54c-.08,0-7.47-2.61-14.85-5.91-8.6-3.84-13.32-1.31-20.06,5.43-2.57,2.57-6,7.75-5.15,11.56a4.64,4.64,0,0,0,3.22,3.38c4.25,1.4,8.13.06,11-3.77a9.47,9.47,0,0,0,2.82-.89c.35-.16.76-.34,1.31-.56,2.15,2,5,4.36,8.09,6.82C60,32.21,66.28,37.26,67.68,40.19A2.2,2.2,0,0,1,67.12,43a2.07,2.07,0,0,1-2.31.45,1.87,1.87,0,0,0-2.93,1.74,2.27,2.27,0,0,1-1.44,2.11,2.88,2.88,0,0,1-2.92.07,1.87,1.87,0,0,0-3.15,1.2,3.56,3.56,0,0,1-2.21,2.87A2,2,0,0,1,50,51.11a1.9,1.9,0,0,0-1.71-.44A1.87,1.87,0,0,0,47,51.86c-.07.19-.23.64-2,.64a10.8,10.8,0,0,1-4.59-1.57c-1.32-.87-9.57-7-16.7-13-1-.84-2.73-2.65-4.26-4.25-1.36-1.42-2.6-2.7-3.24-3.24a1.88,1.88,0,0,0-2.42,2.87c.58.49,1.71,1.68,2.95,3,1.67,1.75,3.4,3.56,4.56,4.53,7,5.85,15.38,12.16,17,13.26A14.39,14.39,0,0,0,45,56.25,6.45,6.45,0,0,0,49.26,55a5.84,5.84,0,0,0,4.26,0,7.39,7.39,0,0,0,3.9-3.6,7.25,7.25,0,0,0,4.71-.68,6.36,6.36,0,0,0,3.13-3.27,6.13,6.13,0,0,0,4.3-1.54A6,6,0,0,0,71.06,38.57Z"/><path class="cls-2" d="M37.5,7.5H20.62a1.88,1.88,0,1,0,0,3.75H37.5a1.88,1.88,0,1,0,0-3.75Z"/><path class="cls-3" d="M76.56,34.58a1.87,1.87,0,0,0-2.6-.51l-5.48,3.68a1.88,1.88,0,0,0,2.09,3.11L76,37.18A1.88,1.88,0,0,0,76.56,34.58Z"/><path class="cls-4" d="M64.92,43.53c-1.34-1.06-7.35-7.2-11.06-11.07A1.88,1.88,0,1,0,51.15,35c1,1,9.46,9.87,11.44,11.43a1.87,1.87,0,0,0,1.16.4,1.89,1.89,0,0,0,1.48-.72A1.87,1.87,0,0,0,64.92,43.53Z"/><path class="cls-5" d="M57.42,47.29c-2.25-1.8-7.89-7.79-9.17-9.18a1.88,1.88,0,0,0-2.76,2.54c.07.07,6.8,7.34,9.59,9.57a1.88,1.88,0,0,0,2.34-2.93Z"/><path class="cls-6" d="M50,51.06c-2.67-2.25-8.15-8.08-9.21-9.22A1.88,1.88,0,1,0,38,44.4c1.54,1.65,6.77,7.2,9.54,9.53A1.88,1.88,0,0,0,50,51.06Z"/><path class="cls-7" d="M21.92,4.26C18.7,1.22,5.85.23,2,0A1.87,1.87,0,0,0,0,1.87V35.62A1.88,1.88,0,0,0,1.88,37.5H13.13a1.87,1.87,0,0,0,1.78-1.29c.27-.84,6.74-20.67,7.59-30.42A1.87,1.87,0,0,0,21.92,4.26ZM11.76,33.75h-8V3.88c6,.48,12.53,1.51,14.89,2.66C17.65,14.75,13.15,29.35,11.76,33.75Z"/><path class="cls-8" d="M88.12,3.75c-14.72,0-22.89,3.77-23.23,3.93a1.87,1.87,0,0,0-1,1.17,1.89,1.89,0,0,0,.21,1.52c2.32,3.73,9.57,24.45,11,29.51a1.87,1.87,0,0,0,1.81,1.38H88.12A1.88,1.88,0,0,0,90,39.37V5.62A1.87,1.87,0,0,0,88.12,3.75ZM86.25,37.5h-8c-1.78-5.79-7-20.89-10-27.13A61.07,61.07,0,0,1,86.25,7.52Z"/></g></g></svg>