<svg xmlns="http://www.w3.org/2000/svg" xmlns:xlink="http://www.w3.org/1999/xlink" viewBox="0 0 96 74.72"><defs><style>.cls-1{fill:url(#linear-gradient);}.cls-2{fill:url(#linear-gradient-2);}.cls-3{fill:url(#linear-gradient-3);}.cls-4{fill:url(#linear-gradient-4);}.cls-5{fill:url(#linear-gradient-5);}.cls-6{fill:url(#linear-gradient-6);}</style><linearGradient id="linear-gradient" x1="52.47" y1="50.84" x2="60.94" y2="50.84" gradientUnits="userSpaceOnUse"><stop offset="0" stop-color="#0c98f2"/><stop offset="0.99" stop-color="#005b97"/></linearGradient><linearGradient id="linear-gradient-2" x1="14.2" y1="64.99" x2="23.64" y2="64.99" xlink:href="#linear-gradient"/><linearGradient id="linear-gradient-3" x1="77.08" y1="64.99" x2="86.52" y2="64.99" xlink:href="#linear-gradient"/><linearGradient id="linear-gradient-4" x1="0" y1="53.8" x2="96" y2="53.8" xlink:href="#linear-gradient"/><linearGradient id="linear-gradient-5" x1="39.09" y1="14.33" x2="56.29" y2="14.33" xlink:href="#linear-gradient"/><linearGradient id="linear-gradient-6" x1="33.36" y1="14.33" x2="62.02" y2="14.33" xlink:href="#linear-gradient"/></defs><title>Ikon Data Di Jemput</title><g id="Layer_2" data-name="Layer 2"><g id="Layer_1-2" data-name="Layer 1"><path class="cls-1" d="M59.47,49.37H53.94a1.47,1.47,0,0,0,0,2.94h5.53a1.47,1.47,0,0,0,0-2.94Z"/><path class="cls-2" d="M18.92,60.27A4.72,4.72,0,1,0,23.64,65,4.72,4.72,0,0,0,18.92,60.27Zm0,6.49A1.78,1.78,0,1,1,20.7,65,1.78,1.78,0,0,1,18.92,66.76Z"/><path class="cls-3" d="M81.8,60.27A4.72,4.72,0,1,0,86.52,65,4.72,4.72,0,0,0,81.8,60.27Zm0,6.49A1.78,1.78,0,1,1,83.58,65,1.78,1.78,0,0,1,81.8,66.76Z"/><path class="cls-4" d="M95.89,56A14.21,14.21,0,0,0,84.94,43.87L79.1,38.29a19.47,19.47,0,0,0-13.51-5.41H54.26a41,41,0,0,0-18.18,4.28,1.47,1.47,0,0,0,1.31,2.63,38.08,38.08,0,0,1,16.88-4h7.49l1.18,8.76L26.63,46l5.51-3.23a1.47,1.47,0,0,0-1.49-2.54l-10.25,6-5.18.23a14.14,14.14,0,0,0-4.69,1l-.12,0a14.17,14.17,0,0,0-7,6.31,14.67,14.67,0,0,0-.85,1.86C2.06,57,1.71,58.3,1.31,59.61l-1,3.24-.11.35a4.33,4.33,0,0,0,4.14,5.62H10a9.73,9.73,0,0,0,17.9,0h45a9.73,9.73,0,0,0,17.9,0h3.78A1.47,1.47,0,0,0,96,67.34V57.73A13.84,13.84,0,0,0,95.89,56ZM89,49l.06.05a11.33,11.33,0,0,1,3.75,6.1A4.62,4.62,0,0,1,89,50.64ZM65.59,35.82h0a16.54,16.54,0,0,1,11.47,4.6l3.64,3.47-14.81.57-1.17-8.65ZM5.54,56.13l.2-.43h0a11.3,11.3,0,0,1,3.88-4.41v.41a4.62,4.62,0,0,1-4.14,4.59Zm18.91,12.8a6.86,6.86,0,0,1-2.73,2.24,6.79,6.79,0,0,1-9.37-4.48,6.79,6.79,0,1,1,12.1,2.24Zm4.17-3.07h0c0-.29,0-.59,0-.88A9.73,9.73,0,0,0,9.19,65h0c0,.28,0,.58,0,.87H4.34A1.4,1.4,0,0,1,3,64.06l1.5-4.84.5,0a7.56,7.56,0,0,0,7.55-7.55V50s0-.07,0-.11a11.2,11.2,0,0,1,2.81-.49l5.53-.25,8.58-.33c-.55,3.48-1.32,11.11,1.27,17H28.62Zm23.87,0H34C30.87,60.31,32,51.72,32.47,48.7l30.79-1.19c.17,3,.18,10.56-3.53,15A9.57,9.57,0,0,1,52.48,65.87Zm36.1-.44A6.79,6.79,0,0,1,75,65a6.79,6.79,0,0,1,13.59,0Q88.59,65.21,88.58,65.43Zm4.48.44H91.49a9.83,9.83,0,0,0-9.19-10.6h-.5A9.75,9.75,0,0,0,72.06,65c0,.29,0,.59,0,.88H60.49A12.55,12.55,0,0,0,62,64.36c4.37-5.21,4.42-13.49,4.21-17L84.1,46.7a11.19,11.19,0,0,1,2.09.65,7.57,7.57,0,0,0-.17,1.6v1.69a7.56,7.56,0,0,0,7,7.53v7.7Z"/><path class="cls-5" d="M55.86,7.21a1.47,1.47,0,0,0-2.08,0L43.21,17.78l-1.28-3.31a1.47,1.47,0,1,0-2.74,1.06l2.09,5.42a1.47,1.47,0,0,0,2.41.51L55.86,9.29A1.47,1.47,0,0,0,55.86,7.21Z"/><path class="cls-6" d="M47.69,0A14.33,14.33,0,1,0,62,14.33,14.35,14.35,0,0,0,47.69,0Zm0,25.72A11.39,11.39,0,1,1,59.08,14.33,11.4,11.4,0,0,1,47.69,25.72Z"/></g></g></svg>