<?xml version="1.0"?>
<svg xmlns="http://www.w3.org/2000/svg" xmlns:xlink="http://www.w3.org/1999/xlink" xmlns:svgjs="http://svgjs.com/svgjs" version="1.1" width="512" height="512" x="0" y="0" viewBox="0 0 508.022 508.022" style="enable-background:new 0 0 512 512" xml:space="preserve" class=""><g>
<g xmlns="http://www.w3.org/2000/svg">
	<g>
		<path d="M505,286.334l-73.2-182.6c-3.1-11.7-22.9-33.7-53.3-22.8l-175.8,70.4H41c-22.6,0-41,18.4-41,41v196.7    c0,22.6,18.4,41,41,41h344.3c22.6,0,41-18.4,41-41v-27l55.9-22.4C512.6,325.934,509.9,296.734,505,286.334z M409.9,389.134    c0,13.5-11.1,24.6-24.6,24.6H41c-13.6,0-24.6-11-24.6-24.6v-123h393.5V389.134z M409.9,249.734H16.4v-32.8h393.5V249.734z     M409.9,200.534H16.4v-8.2c0-13.6,11-24.6,24.6-24.6h344.3c13.6,0,24.6,11,24.6,24.6V200.534z M476.1,324.434l-49.8,19.9v-152    c0-22.6-18.4-41-41-41H246.8l137.8-55.2c18-6.5,29,6,32,13.7l73.2,182.6C496.1,311.134,482.1,322.034,476.1,324.434z" fill="#049cfc" data-original="#000000" style="" class=""/>
	</g>
</g>
<g xmlns="http://www.w3.org/2000/svg">
	<g>
		<rect x="41" y="307.134" width="106.6" height="16.4" fill="#049cfc" data-original="#000000" style="" class=""/>
	</g>
</g>
<g xmlns="http://www.w3.org/2000/svg">
	<g>
		<rect x="41" y="364.534" width="164" height="16.4" fill="#049cfc" data-original="#000000" style="" class=""/>
	</g>
</g>
<g xmlns="http://www.w3.org/2000/svg">
	<g>
		<path d="M352.5,331.734c-5.8,0-11.4,1.6-16.4,4.5c-5-2.9-10.6-4.5-16.4-4.5c-18.1,0-32.8,14.7-32.8,32.8s14.7,32.8,32.8,32.8    c5.8,0,11.4-1.6,16.4-4.5c5,2.9,10.6,4.5,16.4,4.5c18.1,0,32.8-14.7,32.8-32.8S370.6,331.734,352.5,331.734z M352.5,380.934    c-9.3,0-16.4-9.2-16.4-9.2s-7.4,9.2-16.4,9.2s-16.4-7.4-16.4-16.4s7.4-16.4,16.4-16.4c8.9,0,16.4,9.2,16.4,9.2s7.6-9.2,16.4-9.2    c9,0,16.4,7.4,16.4,16.4S361.5,380.934,352.5,380.934z" fill="#049cfc" data-original="#000000" style="" class=""/>
	</g>
</g>
<g xmlns="http://www.w3.org/2000/svg">
</g>
<g xmlns="http://www.w3.org/2000/svg">
</g>
<g xmlns="http://www.w3.org/2000/svg">
</g>
<g xmlns="http://www.w3.org/2000/svg">
</g>
<g xmlns="http://www.w3.org/2000/svg">
</g>
<g xmlns="http://www.w3.org/2000/svg">
</g>
<g xmlns="http://www.w3.org/2000/svg">
</g>
<g xmlns="http://www.w3.org/2000/svg">
</g>
<g xmlns="http://www.w3.org/2000/svg">
</g>
<g xmlns="http://www.w3.org/2000/svg">
</g>
<g xmlns="http://www.w3.org/2000/svg">
</g>
<g xmlns="http://www.w3.org/2000/svg">
</g>
<g xmlns="http://www.w3.org/2000/svg">
</g>
<g xmlns="http://www.w3.org/2000/svg">
</g>
<g xmlns="http://www.w3.org/2000/svg">
</g>
</g></svg>
