<?xml version="1.0"?>
<svg xmlns="http://www.w3.org/2000/svg" xmlns:xlink="http://www.w3.org/1999/xlink" xmlns:svgjs="http://svgjs.com/svgjs" version="1.1" width="512" height="512" x="0" y="0" viewBox="0 0 512 512" style="enable-background:new 0 0 512 512" xml:space="preserve" class=""><g><g xmlns="http://www.w3.org/2000/svg"><path d="m215.838 234.006c-14.195 0-25.743 11.549-25.743 25.743s11.548 25.743 25.743 25.743c14.194 0 25.743-11.549 25.743-25.743s-11.549-25.743-25.743-25.743zm0 36.486c-5.924 0-10.743-4.819-10.743-10.743s4.819-10.743 10.743-10.743c5.923 0 10.743 4.819 10.743 10.743s-4.82 10.743-10.743 10.743z" fill="#2b9cff" data-original="#000000" style="" class=""/><path d="m389.687 365.379c-17.288 0-31.353 14.064-31.353 31.352s14.064 31.352 31.353 31.352c17.287 0 31.352-14.064 31.352-31.352s-14.065-31.352-31.352-31.352zm0 47.703c-9.017 0-16.353-7.335-16.353-16.352s7.336-16.352 16.353-16.352 16.352 7.335 16.352 16.352-7.336 16.352-16.352 16.352z" fill="#2b9cff" data-original="#000000" style="" class=""/><path d="m114.845 365.379c-17.288 0-31.352 14.064-31.352 31.352s14.064 31.352 31.352 31.352 31.352-14.064 31.352-31.352-14.065-31.352-31.352-31.352zm0 47.703c-9.017 0-16.352-7.335-16.352-16.352s7.335-16.352 16.352-16.352 16.352 7.335 16.352 16.352-7.336 16.352-16.352 16.352z" fill="#2b9cff" data-original="#000000" style="" class=""/><path d="m498.919 332.473c0-15.322 0-58.948 0-73.633 0-4.741-1.109-9.493-3.207-13.741l-27.444-55.604c-1.833-3.714-6.327-5.239-10.045-3.406-3.715 1.833-5.239 6.331-3.406 10.045l27.445 55.605c1.084 2.195 1.657 4.65 1.657 7.101v10.493h-25.553c-7.995 0-14.5 6.505-14.5 14.5v11c0 7.995 6.505 14.5 14.5 14.5h25.553v23.118h-188.466c0-2.828 0-174.734 0-180 0-3.559 2.896-6.453 6.454-6.453h124.153c2.474 0 4.691 1.378 5.786 3.597l7.479 15.153c1.833 3.714 6.332 5.239 10.045 3.406 3.715-1.834 5.239-6.331 3.406-10.045l-7.479-15.154c-3.642-7.375-11.013-11.957-19.237-11.957h-124.153c-11.83 0-21.454 9.624-21.454 21.453v38.767h-17.354c-7.982 0-14.477 6.494-14.477 14.477v4.664c-45.198 0-41.019-.017-42.66.04l-34.96-45.956c-2.508-3.297-7.214-3.936-10.51-1.428s-3.936 7.213-1.428 10.51l30.809 40.5c-16.024 6.953-26.884 22.901-26.884 40.898v12.691l-96.576-190.274c-1.808-3.559-.671-8.014 2.876-10.194 3.333-2.05 7.813-1.363 10.314 1.926l58.27 76.598c2.508 3.297 7.214 3.936 10.51 1.428s3.936-7.213 1.428-10.51l-58.27-76.598c-6.947-9.133-19.943-11.875-30.11-5.621-10.439 6.42-13.621 19.465-8.394 29.762l13.73 27.052v87.352c0 6.563 5.339 11.902 11.903 11.902h9.539c2.743 0 4.974 2.231 4.974 4.975v2.445c0 4.092-3.329 7.42-7.42 7.42h-11.495c-4.142 0-7.5 3.357-7.5 7.5s3.358 7.5 7.5 7.5h11.496c12.362 0 22.42-10.058 22.42-22.42v-2.445c0-11.014-8.96-19.975-19.974-19.975h-6.442c0-6.518 0-47.953 0-54.702l81.221 160.022v31.695c-5.195 0-142.058 0-149.489 0-7.444 0-13.5 6.056-13.5 13.5v32.477c0 7.444 6.056 13.5 13.5 13.5h37.264c-.118 1.588-.198 3.186-.198 4.803 0 35.444 28.835 64.28 64.279 64.28s64.279-28.836 64.279-64.28c0-1.617-.08-3.215-.198-4.803h146.679c-2.798 37.672 27.129 69.083 64.082 69.083 35.443 0 64.279-28.836 64.279-64.28 0-1.617-.08-3.215-.198-4.803h44.732c7.444 0 13.5-6.056 13.5-13.5v-32.477c0-7.304-5.832-13.255-13.081-13.479zm-40.053-38.14v-10h25.053v10zm-195.244-76.474v-11.641h16.831v126.233h-16.831zm-85.633 81.11c0-.002 0-.004 0-.006 0-51.032-.003-43.257.005-44.274.125-15.976 13.171-29.33 29.558-29.33h41.069v107.093h-70.633v-33.483zm-124.294 77.959h-38.695v-29.477h58.582c-9.214 7.729-16.187 18.081-19.887 29.477zm61.15 69.083c-27.173 0-49.279-22.107-49.279-49.28 0-27.756 22.895-49.279 49.279-49.279 26.57 0 49.279 21.706 49.279 49.279 0 27.172-22.106 49.28-49.279 49.28zm213.692-69.083h-152.543c-3.561-10.97-10.343-21.471-19.886-29.477h192.315c-9.272 7.779-16.213 18.156-19.886 29.477zm61.15 69.083c-27.173 0-49.28-22.107-49.28-49.28 0-27.697 22.839-49.279 49.28-49.279h.007c26.538 0 49.273 21.688 49.273 49.279-.001 27.172-22.108 49.28-49.28 49.28zm107.313-69.083h-46.165c-3.656-11.266-10.571-21.662-19.886-29.477h66.051z" fill="#2b9cff" data-original="#000000" style="" class=""/><path d="m411.507 161.522h-85.969c-7.982 0-14.477 6.494-14.477 14.477v64.535c0 7.982 6.494 14.477 14.477 14.477h117.821c5.039 0 9.635-2.555 12.295-6.834s2.917-9.531.688-14.05l-31.854-64.534c-2.456-4.98-7.43-8.071-12.981-8.071zm-85.445 78.488v-63.488h85.12l31.337 63.488z" fill="#2b9cff" data-original="#000000" style="" class=""/></g></g></svg>
